<?xml version="1.0" standalone="no"?>
<!DOCTYPE svg PUBLIC "-//W3C//DTD SVG 20010904//EN"
 "http://www.w3.org/TR/2001/REC-SVG-20010904/DTD/svg10.dtd">
<svg version="1.0" xmlns="http://www.w3.org/2000/svg"
 width="927.000000pt" height="927.000000pt" viewBox="0 0 927.000000 927.000000"
 preserveAspectRatio="xMidYMid meet">
<metadata>
Created by potrace 1.11, written by Peter Selinger 2001-2013
</metadata>
<g transform="translate(0.000000,927.000000) scale(0.100000,-0.100000)"
fill="#000000" stroke="none">
<path d="M650 8842 c0 -7 7 -15 15 -18 8 -4 13 -9 10 -13 -2 -4 12 -29 31 -56
18 -27 34 -52 34 -57 0 -5 9 -18 20 -30 11 -12 20 -28 20 -35 0 -7 5 -13 12
-13 6 0 9 -3 5 -6 -3 -3 -1 -11 4 -18 19 -21 93 -141 108 -173 6 -13 15 -23
21 -23 6 0 8 -4 5 -10 -3 -5 -1 -10 4 -10 6 0 11 -5 11 -10 0 -9 64 -116 87
-145 4 -5 17 -27 28 -47 11 -21 23 -38 27 -38 5 0 8 -9 8 -20 0 -11 4 -20 8
-20 6 0 45 -59 97 -149 30 -52 81 -127 90 -133 6 -5 6 -8 0 -8 -5 0 -2 -5 8
-11 9 -6 15 -14 12 -20 -4 -5 -1 -9 6 -9 7 0 9 -3 6 -7 -4 -3 -1 -13 5 -21 7
-8 17 -22 23 -32 5 -11 74 -121 153 -245 78 -125 142 -231 142 -236 0 -5 4 -9
9 -9 5 0 14 -13 21 -30 7 -16 16 -30 21 -30 5 0 9 -5 9 -10 0 -6 50 -89 110
-185 60 -97 110 -177 110 -179 0 -2 23 -37 50 -79 28 -42 50 -81 50 -86 0 -6
3 -11 8 -11 4 0 18 -20 31 -45 13 -25 28 -45 32 -45 5 0 8 -3 7 -7 -2 -8 4
-19 69 -120 18 -28 33 -56 33 -62 0 -6 4 -11 9 -11 5 0 14 -13 21 -30 7 -16
16 -30 21 -30 5 0 9 -9 9 -19 0 -11 4 -21 9 -23 5 -1 42 -57 82 -123 40 -66
77 -121 81 -123 4 -2 8 -9 8 -16 0 -7 9 -22 20 -34 12 -12 17 -22 13 -22 -4 0
1 -7 12 -16 11 -8 18 -17 16 -20 -4 -6 97 -171 117 -191 7 -7 11 -13 7 -13 -3
0 3 -13 14 -29 12 -16 21 -34 21 -39 0 -6 4 -12 9 -14 5 -1 17 -17 27 -35 55
-93 110 -179 119 -185 5 -4 6 -8 2 -8 -4 0 1 -10 13 -22 11 -12 20 -26 20 -31
0 -6 11 -25 25 -43 14 -18 25 -35 25 -38 0 -8 105 -171 113 -174 4 -2 7 -8 7
-13 0 -10 183 -307 204 -331 9 -10 16 -20 16 -23 0 -3 14 -27 31 -55 16 -27
30 -53 30 -57 0 -4 7 -12 15 -16 8 -5 12 -12 9 -18 -4 -5 1 -12 9 -15 9 -3 13
-10 10 -15 -3 -5 -1 -9 5 -9 5 0 13 -10 17 -22 3 -12 11 -26 15 -32 5 -6 24
-33 41 -61 17 -27 46 -73 65 -102 18 -28 33 -56 33 -62 0 -6 3 -11 8 -11 4 0
18 -20 31 -45 13 -25 28 -45 32 -45 5 0 9 -7 9 -15 0 -16 39 -77 53 -83 4 -2
7 -8 7 -13 0 -5 17 -35 37 -66 l37 -58 1 -1628 0 -1627 890 2 890 3 0 1640 0
1640 43 70 c36 59 131 210 260 415 109 172 207 328 216 345 6 11 24 39 39 62
15 24 27 47 27 53 0 5 5 10 10 10 6 0 15 10 20 23 6 12 18 34 28 49 121 190
278 445 280 455 2 7 7 13 12 13 4 0 13 14 20 30 7 17 16 30 21 30 5 0 9 5 9
10 0 6 18 38 40 71 22 33 40 63 40 66 0 3 10 20 23 37 19 26 87 134 122 194
32 56 151 238 158 243 5 3 8 8 6 10 -2 4 15 34 90 151 20 32 57 90 82 130 270
427 337 535 354 566 11 20 28 46 38 56 9 11 17 24 17 28 0 5 5 14 10 21 23 28
59 87 52 87 -4 0 -2 4 3 8 14 10 65 90 65 102 0 5 4 10 8 10 4 0 21 24 36 53
16 28 31 54 35 57 7 5 14 17 63 100 18 30 36 60 41 65 13 16 77 116 77 121 0
5 77 126 111 176 11 15 19 32 19 38 0 5 5 10 10 10 6 0 10 5 10 10 0 6 15 32
33 58 26 38 98 154 162 260 12 20 60 95 83 132 9 14 17 27 17 30 0 3 12 21 26
40 14 19 29 42 32 50 4 8 29 49 57 90 28 41 56 86 62 100 7 14 15 27 18 30 3
3 26 37 50 75 24 39 49 79 57 91 l13 20 -1015 1 c-559 0 -1013 -2 -1011 -5 3
-2 -7 -23 -23 -46 -15 -22 -36 -57 -46 -76 -10 -19 -21 -37 -24 -40 -3 -3 -15
-21 -25 -40 -11 -19 -31 -53 -45 -75 -14 -22 -24 -43 -23 -47 1 -5 -3 -8 -8
-8 -6 0 -10 -4 -10 -9 0 -8 -64 -116 -161 -276 -10 -16 -23 -39 -28 -50 -5
-11 -21 -37 -35 -58 -14 -21 -26 -40 -26 -42 0 -2 -29 -50 -63 -108 -35 -57
-67 -111 -71 -118 -7 -15 -10 -20 -67 -114 -21 -33 -46 -76 -57 -95 -10 -19
-58 -100 -106 -179 -47 -79 -86 -148 -86 -152 0 -5 -5 -9 -12 -9 -6 0 -8 -3
-5 -7 4 -3 -4 -20 -16 -37 -13 -17 -35 -51 -49 -76 -14 -25 -35 -63 -48 -85
-12 -22 -28 -47 -36 -56 -8 -8 -14 -19 -14 -23 0 -4 -16 -32 -35 -62 -19 -30
-35 -56 -35 -58 0 -3 -22 -41 -50 -85 -27 -44 -50 -85 -50 -90 0 -5 -7 -14
-15 -21 -8 -7 -13 -16 -10 -20 3 -5 2 -10 -3 -12 -10 -4 -132 -206 -132 -219
0 -5 -4 -9 -9 -9 -5 0 -13 -10 -17 -22 -4 -13 -20 -42 -35 -65 -16 -23 -29
-46 -29 -52 0 -6 -4 -11 -8 -11 -4 0 -13 -12 -20 -27 -6 -16 -20 -41 -31 -58
-11 -16 -26 -41 -34 -55 -34 -61 -58 -102 -84 -142 -15 -24 -27 -45 -28 -48 0
-3 -14 -28 -31 -55 -73 -118 -114 -186 -114 -190 0 -3 -16 -29 -35 -59 -19
-30 -35 -59 -35 -64 0 -5 -8 -16 -19 -26 -17 -16 -19 -15 -33 6 -8 13 -18 30
-21 38 -4 8 -16 29 -27 45 -11 17 -23 36 -26 44 -4 8 -30 53 -59 100 -28 47
-54 93 -58 101 -5 8 -13 24 -20 35 -7 11 -35 58 -62 105 -28 47 -55 94 -62
105 -7 11 -17 29 -22 40 -6 11 -24 43 -41 70 -17 28 -41 70 -55 95 -14 25 -31
54 -38 65 -45 71 -87 143 -87 149 0 3 -22 42 -50 86 -27 44 -50 82 -50 84 0 3
-23 41 -50 86 -28 45 -50 83 -50 86 0 3 -68 120 -90 154 -6 8 -15 24 -20 35
-6 11 -21 38 -35 60 -14 22 -36 60 -50 85 -14 25 -30 52 -35 60 -5 8 -33 56
-61 105 -28 50 -60 102 -70 117 -11 15 -19 30 -19 34 0 4 -17 34 -37 68 -21
34 -43 71 -50 81 -7 11 -24 43 -39 70 -14 28 -31 57 -38 65 -6 8 -17 26 -24
39 -8 13 -22 39 -32 57 -11 18 -30 50 -43 71 -13 21 -27 45 -30 53 -4 8 -15
29 -26 45 -10 17 -51 86 -91 155 -40 69 -82 141 -93 160 -11 19 -25 44 -31 55
-52 92 -109 186 -117 191 -5 3 -7 9 -4 14 3 4 -2 13 -10 20 -8 7 -15 18 -15
24 0 7 -8 21 -18 32 -10 10 -24 34 -31 52 -7 17 -19 33 -25 33 -6 1 -473 2
-1038 3 -838 1 -1028 -1 -1028 -12z"/>
</g>
</svg>
